<?xml version="1.0" standalone="no"?>
<!DOCTYPE svg PUBLIC "-//W3C//DTD SVG 20010904//EN"
 "http://www.w3.org/TR/2001/REC-SVG-20010904/DTD/svg10.dtd">
<svg version="1.0" xmlns="http://www.w3.org/2000/svg"
 width="200.000000pt" height="200.000000pt" viewBox="0 0 200.000000 200.000000"
 preserveAspectRatio="xMidYMid meet">
<metadata>
Created by potrace 1.11, written by Peter Selinger 2001-2013
</metadata>
<g transform="translate(0.000000,200.000000) scale(0.100000,-0.100000)"
fill="#000000" stroke="none">
<path d="M914 1415 c-27 -6 -72 -23 -100 -39 -155 -84 -224 -237 -200 -443 4
-36 -12 -44 -34 -18 -8 10 -17 12 -22 7 -15 -15 18 -69 45 -76 18 -4 26 -17
37 -58 8 -29 13 -56 12 -60 -1 -4 5 -23 13 -42 9 -20 15 -39 15 -43 0 -5 3
-22 6 -40 4 -24 0 -40 -20 -69 -14 -21 -26 -44 -26 -50 0 -7 -6 -12 -12 -11
-42 1 -62 -7 -93 -38 -58 -60 -58 -153 -1 -203 21 -17 23 -27 21 -83 -2 -35
-10 -83 -18 -106 l-15 -43 439 0 440 0 -3 35 c-1 19 1 37 5 41 4 4 7 0 7 -10
0 -9 7 -28 16 -41 15 -23 23 -25 91 -25 41 0 73 3 71 8 -35 68 -70 150 -78
184 -8 37 -7 45 8 58 20 17 44 70 46 103 3 36 -22 96 -51 126 -31 30 -105 63
-125 56 -8 -3 -24 12 -38 35 -14 22 -30 40 -37 40 -26 0 -33 71 -37 360 -3
187 -5 198 -31 265 -15 38 -43 86 -62 106 -63 68 -168 97 -269 74z"/>
</g>
</svg>
